<svg xmlns="http://www.w3.org/2000/svg" viewBox="0 0 100 100" width="100" height="100">
  <title>PersonaLink app icon — 1024 (rounded blue tile, white mark)</title>
  <rect width="100" height="100" rx="22" fill="#2b4dff"></rect>
  <g transform="translate(50 50) rotate(10)" fill="#ffffff">
    <path d="M 0 -36 C 3.4 -24 3.4 -10 0 0 C -3.4 -10 -3.4 -24 0 -36 Z"></path>
    <path d="M 0 -36 C 3.4 -24 3.4 -10 0 0 C -3.4 -10 -3.4 -24 0 -36 Z" transform="rotate(60)"></path>
    <path d="M 0 -36 C 3.4 -24 3.4 -10 0 0 C -3.4 -10 -3.4 -24 0 -36 Z" transform="rotate(120)"></path>
    <path d="M 0 -36 C 3.4 -24 3.4 -10 0 0 C -3.4 -10 -3.4 -24 0 -36 Z" transform="rotate(180)"></path>
    <path d="M 0 -36 C 3.4 -24 3.4 -10 0 0 C -3.4 -10 -3.4 -24 0 -36 Z" transform="rotate(240)"></path>
    <path d="M 0 -36 C 3.4 -24 3.4 -10 0 0 C -3.4 -10 -3.4 -24 0 -36 Z" transform="rotate(300)"></path>
  </g>
</svg>