<svg xmlns="http://www.w3.org/2000/svg" viewBox="0 0 100 100" width="100" height="100">
  <title>PersonaLink mark — white</title>
  <g transform="translate(50 50) rotate(10)" fill="#ffffff">
    <path d="M 0 -42 C 4 -28 4 -12 0 0 C -4 -12 -4 -28 0 -42 Z"></path>
    <path d="M 0 -42 C 4 -28 4 -12 0 0 C -4 -12 -4 -28 0 -42 Z" transform="rotate(60)"></path>
    <path d="M 0 -42 C 4 -28 4 -12 0 0 C -4 -12 -4 -28 0 -42 Z" transform="rotate(120)"></path>
    <path d="M 0 -42 C 4 -28 4 -12 0 0 C -4 -12 -4 -28 0 -42 Z" transform="rotate(180)"></path>
    <path d="M 0 -42 C 4 -28 4 -12 0 0 C -4 -12 -4 -28 0 -42 Z" transform="rotate(240)"></path>
    <path d="M 0 -42 C 4 -28 4 -12 0 0 C -4 -12 -4 -28 0 -42 Z" transform="rotate(300)"></path>
  </g>
</svg>